<?xml version="1.0" encoding="UTF-8" standalone="no"?>
<!-- Created with Inkscape (http://www.inkscape.org/) -->

<svg
   xmlns:dc="http://purl.org/dc/elements/1.1/"
   xmlns:cc="http://creativecommons.org/ns#"
   xmlns:rdf="http://www.w3.org/1999/02/22-rdf-syntax-ns#"
   xmlns:svg="http://www.w3.org/2000/svg"
   xmlns="http://www.w3.org/2000/svg"
   xmlns:sodipodi="http://sodipodi.sourceforge.net/DTD/sodipodi-0.dtd"
   xmlns:inkscape="http://www.inkscape.org/namespaces/inkscape"
   width="744.09448819"
   height="1052.3622047"
   id="svg3217"
   version="1.1"
   inkscape:version="0.48.4 r9939"
   sodipodi:docname="logo.svg">
  <defs
     id="defs3219" />
  <sodipodi:namedview
     id="base"
     pagecolor="#ffffff"
     bordercolor="#666666"
     borderopacity="1.0"
     inkscape:pageopacity="0.0"
     inkscape:pageshadow="2"
     inkscape:zoom="1.979899"
     inkscape:cx="369.87948"
     inkscape:cy="609.97601"
     inkscape:document-units="px"
     inkscape:current-layer="layer1"
     showgrid="false"
     inkscape:window-width="1920"
     inkscape:window-height="1017"
     inkscape:window-x="1912"
     inkscape:window-y="-8"
     inkscape:window-maximized="1" />
  <metadata
     id="metadata3222">
    <rdf:RDF>
      <cc:Work
         rdf:about="">
        <dc:format>image/svg+xml</dc:format>
        <dc:type
           rdf:resource="http://purl.org/dc/dcmitype/StillImage" />
        <dc:title></dc:title>
      </cc:Work>
    </rdf:RDF>
  </metadata>
  <g
     inkscape:label="Layer 1"
     inkscape:groupmode="layer"
     id="layer1">
    <path
       style="fill:#f9f021;stroke:#011c03;stroke-width:1px;stroke-linecap:butt;stroke-linejoin:miter;stroke-opacity:1;fill-opacity:1"
       d="m 434.60019,354.05091 c 7.5,-10 54.88551,-18.31843 70.98116,-1.21937 16.09343,17.0967 15.05637,37.83553 2.10696,55.73696 -8.83156,12.20887 -27.18497,17.16593 -36.30421,18.80512 -13.46986,2.42123 -24.60142,-2.05709 -32.14631,-4.6017 7.85714,-2.67857 25.73365,-6.43895 29.41171,-34.33994 3.15307,-23.91844 -26.19217,-35.27393 -34.04931,-34.38107 z"
       id="path3236"
       inkscape:connector-curvature="0"
       sodipodi:nodetypes="cssscsc" />
    <path
       style="fill:#f9f021;stroke:#000000;stroke-width:1.60000002000000000;stroke-linecap:square;stroke-linejoin:miter;stroke-miterlimit:19.29999923999999800;stroke-opacity:1;stroke-dasharray:none;fill-opacity:1"
       d="m 238.14346,388.69196 14.64721,-4.41942 -5.42957,-11.61675 10.48034,9.21764 5.3033,-12.87945 1.51523,13.76334 9.47018,-8.96511 -5.68211,12.12183 11.99556,1.26269 -13.63705,4.29315 7.19733,10.98541 -10.73287,-8.08122 -1.76777,13.63706 -3.40927,-13.76333 -10.73287,11.49048 5.55584,-15.15228 z"
       id="path3238"
       inkscape:connector-curvature="0"
       sodipodi:nodetypes="ccccccccccccccccc" />
    <path
       style="fill:#4f64cb;stroke:#000000;stroke-width:1px;stroke-linecap:butt;stroke-linejoin:miter;stroke-opacity:1;fill-opacity:1"
       d="m 308.82658,502.94162 c -2.0203,-1.51523 -47.13579,-34.86077 -47.13579,-34.86077 l -44.23751,34.61041 -0.9235,60.48661 92.01581,-0.88761 z"
       id="path3254"
       inkscape:connector-curvature="0"
       sodipodi:nodetypes="cccccc" />
    <g
       id="g4108"
       style="fill:#f9f021;fill-opacity:1;stroke:#011c03;stroke-opacity:1">
      <path
         sodipodi:nodetypes="ccccc"
         inkscape:connector-curvature="0"
         id="path3256"
         d="m 282.02197,511.4255 c -4.67196,1.01015 -5.49271,-2.20972 -6.3766,-4.04062 -0.57718,-4.4123 0.14732,-4.01956 0.88389,-8.08121 2.39911,0.0631 5.42957,2.58851 6.12405,4.79822 0.56821,1.45209 1.39327,7.07107 -0.63134,7.32361 z"
         style="fill:#f9f021;stroke:#011c03;stroke-width:1px;stroke-linecap:butt;stroke-linejoin:miter;stroke-opacity:1;fill-opacity:1" />
      <path
         sodipodi:nodetypes="ccccc"
         inkscape:connector-curvature="0"
         id="path3258"
         d="m 265.29132,509.72086 c 1.95717,-0.88388 1.38895,-5.61897 0.1894,-8.14435 -1.41001,-2.91023 -3.13569,-4.20897 -7.26048,-4.41942 -2.20971,2.84105 -0.69448,7.95495 0.31568,9.21764 2.0203,3.283 3.85121,4.54569 6.7554,3.34613 z"
         style="fill:#f9f021;stroke:#011c03;stroke-width:1px;stroke-linecap:butt;stroke-linejoin:miter;stroke-opacity:1;fill-opacity:1" />
      <path
         sodipodi:nodetypes="ccccc"
         inkscape:connector-curvature="0"
         id="path3260"
         d="m 252.98008,515.52924 c 1.89404,-5.3033 -2.77792,-7.57614 -4.04061,-8.14435 -3.03046,-1.19956 -4.41942,-2.58852 -7.19734,-0.44195 0.17249,3.50943 0.50507,6.37659 4.60882,8.96511 2.0203,0.88388 5.17704,1.51523 6.62913,-0.37881 z"
         style="fill:#f9f021;stroke:#011c03;stroke-width:1px;stroke-linecap:butt;stroke-linejoin:miter;stroke-opacity:1;fill-opacity:1" />
      <path
         sodipodi:nodetypes="ccccc"
         inkscape:connector-curvature="0"
         id="path3262"
         d="m 245.51226,529.35384 c 2.00947,-4.06567 -2.5907,-6.57157 -2.5907,-6.57157 -2.5,-1.96428 -6.80398,-2.56281 -9.00997,-1.0513 -0.31382,2.04908 1.687,5.5704 4.31142,7.37592 1.72072,2.22951 3.84037,4.36678 7.28925,0.24695 z"
         style="fill:#f9f021;stroke:#011c03;stroke-width:1px;stroke-linecap:butt;stroke-linejoin:miter;stroke-opacity:1;fill-opacity:1" />
      <path
         sodipodi:nodetypes="ccccccccc"
         inkscape:connector-curvature="0"
         id="path3264"
         d="m 254.87412,524.62061 c 0.57174,7.27932 2.96731,8.83884 2.2097,13.57393 -1.13642,1.51523 -4.73509,5.74523 -3.72493,9.72271 0.50507,3.21986 5.61897,3.8512 8.71256,0.94701 3.97747,-5.3033 7.89182,-6.2503 15.46796,-7.32359 6.47391,-1.79831 9.97527,-3.40927 8.64944,-8.01809 -3.59867,-6.18719 -10.73288,-6.06091 -14.89976,-7.63928 -3.15672,-4.29315 -8.27062,-7.76554 -11.67988,-7.07106 -2.52539,1.01015 -3.91346,2.52508 -4.73509,5.80837 z"
         style="fill:#f9f021;stroke:#011c03;stroke-width:1px;stroke-linecap:butt;stroke-linejoin:miter;stroke-opacity:1;fill-opacity:1" />
    </g>
    <g
       id="g4160"
       style="stroke:#000000;stroke-opacity:1">
      <path
         sodipodi:nodetypes="cssssc"
         inkscape:connector-curvature="0"
         id="path3276"
         d="m 652.97959,519.38679 c 3.39285,-1.60714 6.85874,-4.36256 7.39232,-6.56074 1.41285,-5.82044 -1.45538,-11.54872 2.43872,-12.5096 2.99286,-0.7385 7.05523,0.95825 8.91018,5.14267 1.99047,4.49011 1.503,7.57316 -2.64794,10.45341 -4.75968,3.30263 -12.07542,3.8314 -16.09328,3.47426 z"
         style="color:#000000;fill:#4f64cb;fill-opacity:1;fill-rule:nonzero;stroke:#000000;stroke-width:0.5;stroke-linecap:butt;stroke-linejoin:miter;stroke-miterlimit:4;stroke-opacity:1;stroke-dasharray:none;stroke-dashoffset:0;marker:none;visibility:visible;display:inline;overflow:visible;enable-background:accumulate" />
      <g
         style="fill:#4f64cb;fill-opacity:1;stroke:#000000;stroke-opacity:1"
         id="g4056">
        <path
           style="fill:#4f64cb;fill-opacity:1;stroke:#000000;stroke-width:1px;stroke-linecap:butt;stroke-linejoin:miter;stroke-opacity:1"
           d="m 76.771593,405.73829 c 1.515229,-4.54569 8.838835,-2.77792 11.111678,-3.40927 5.303301,-1.01015 8.339018,-5.16536 13.005719,-6.43972 2.76845,-0.756 6.02161,-1.9191 8.58629,-0.63135 2.94259,1.47751 5.20453,5.04228 5.3033,8.33376 0.17802,5.9323 -2.39911,2.14657 -3.40926,20.70813 -0.63135,7.82868 -2.77792,11.49048 -2.90419,54.42196 0.26573,5.46223 1.24265,16.90392 1.05315,27.65814 -0.22602,12.82695 -2.82092,16.91485 -1.43196,25.24861 2.39911,8.71257 23.23352,4.92449 34.85027,5.05076 8.20749,0.75761 24.875,0.25254 30.93592,-1.01016 13.13198,-5.30329 15.27856,-11.86929 19.95051,-14.39467 8.37331,-3.5483 9.30182,0.16836 9.59644,2.90419 0.12627,4.79822 -5.80837,17.80395 -6.43971,23.35978 0,3.53554 3.03046,4.79822 1.51523,12.87944 -1.38896,2.77792 -2.65165,4.41942 -11.99557,6.43973 -4.67195,0.63134 -26.26396,-3.91434 -38.63833,-3.283 -13.00572,-0.12627 -27.65293,-5.93465 -45.3306,0.88388 -9.596449,3.6618 -13.384518,-0.50507 -14.899746,-3.78806 -3.661803,-6.43973 -0.439246,-29.16595 -0.378808,-31.94608 0.06586,-3.02974 0.631345,-65.78619 0.631345,-65.78619 0,-11.23795 -0.4215,-28.25772 -7.071068,-42.55268 -1.809857,-6.39762 -5.164732,-7.38858 -4.04061,-14.6472 z"
           id="path3240"
           inkscape:connector-curvature="0"
           sodipodi:nodetypes="ccaasccscccccccccccsccc" />
        <path
           style="fill:#4f64cb;fill-opacity:1;stroke:#000000;stroke-width:1px;stroke-linecap:butt;stroke-linejoin:miter;stroke-opacity:1"
           d="m 123.61741,422.02699 c 3.66181,-2.27284 9.34392,1.2627 8.71257,6.81854 -0.7647,11.44929 -2.14658,13.13197 2.52538,16.41497 4.04061,2.65165 9.84899,-0.37881 10.2278,-5.42957 0,-4.9245 -2.14658,-11.11168 -4.54569,-14.89975 -2.14658,-3.6618 -1.51523,-8.83884 4.41942,-12.2481 2.65165,-0.88388 6.43972,-1.38896 9.84898,6.43972 0.88389,2.52538 0.50508,14.01587 2.27285,19.06663 1.6415,4.16688 6.81852,11.8693 5.55583,17.80394 -1.26269,3.15673 -4.16687,4.41943 -8.71256,4.67196 -3.03046,-0.12627 -5.30329,-5.55584 -10.10152,-5.42957 -3.53553,0.50508 -4.38871,5.10446 -7.32361,6.56599 -2.61021,1.29983 -6.51284,1.70594 -8.58515,1.6792 -1.68965,-0.0218 -3.04128,-1.03718 -4.79937,-2.05801 -5.05076,-3.03045 -5.05076,-8.9651 -4.92449,-11.11167 0.63134,-12.62691 -2.90419,-13.5108 -2.52538,-17.93022 0.3788,-2.27284 3.53553,-8.20748 7.95494,-10.35406 z"
           id="path3242"
           inkscape:connector-curvature="0"
           sodipodi:nodetypes="cccccccccccascccc" />
        <path
           style="fill:#4f64cb;fill-opacity:1;stroke:#000000;stroke-width:1px;stroke-linecap:butt;stroke-linejoin:miter;stroke-opacity:1"
           d="m 168.94801,411.92546 c 5.3033,-3.91434 9.59645,2.02031 11.11168,3.15673 1.38896,1.51523 4.16688,3.40927 6.06091,2.77792 2.02031,-1.26269 4.9245,-6.18718 9.34392,-5.93465 6.55231,0.63135 7.44988,3.40927 8.46003,4.67196 1.50063,2.1937 1.74044,7.52618 1.77588,12.62521 0.0507,7.29535 3.65369,13.76503 4.66384,17.80564 0.88389,3.40926 4.54569,8.33376 3.283,13.13198 -1.38896,3.283 -8.83884,2.77792 -11.99557,0.75762 -3.00811,-1.92519 -6.81853,-7.82869 -6.9448,-12.87945 -0.37881,-2.90419 0.88389,-14.39467 -2.27284,-16.92005 -1.26269,-1.38896 -3.03046,-0.88389 -5.42957,2.77792 -4.04061,7.07106 -0.12626,26.5165 -2.14657,31.06219 -5.17703,5.05076 -6.67055,-2.96249 -12.44919,-5.06467 -3.91398,-1.42385 -6.759,-1.20618 -7.75387,-2.76402 -1.3425,-4.86156 3.7444,-6.95914 5.93732,-12.34974 1.42966,-3.51437 1.13375,-7.41494 1.13375,-8.61092 0,-3.03046 -2.14657,-8.20749 -9.34391,-12.37437 -3.15673,-2.14657 3.78807,-9.97526 6.56599,-11.8693 z"
           id="path3244"
           inkscape:connector-curvature="0"
           sodipodi:nodetypes="cccccsccsccccscsscc" />
        <path
           style="fill:#4f64cb;fill-opacity:1;stroke:#000000;stroke-width:1px;stroke-linecap:butt;stroke-linejoin:miter;stroke-opacity:1"
           d="m 219.83445,407.75859 c 6.69226,-3.283 10.10152,-4.67196 17.5514,-2.90419 8.20749,1.6415 10.22779,11.49049 11.61675,15.15229 1.26269,3.283 1e-5,10.22779 1.13643,14.39467 1.89403,5.42957 7.82868,9.59645 8.83883,12.2481 1.26269,3.283 -0.37881,6.18718 -4.16688,8.46003 -6.31346,1.76777 -9.59645,-0.88388 -12.6269,-0.88388 -3.03046,0 -9.09138,3.91434 -12.75318,4.41942 -5.17704,0.50507 -7.95495,-1.13643 -10.6066,-5.05077 -2.27285,-3.53553 -3.66181,-8.33375 -3.40927,-13.00571 0.3788,-3.283 1.51523,-7.32361 5.68211,-9.97526 6.18718,-4.41942 8.9651,-3.283 12.50064,-5.93465 2.0203,-1.51523 5.3033,-6.31345 1.26269,-6.69226 -3.91434,0 -5.42957,2.77792 -7.32361,3.78807 -1.89404,1.01016 -3.91434,2.39912 -8.08122,1.76777 -2.90419,-0.88388 -5.05076,-2.90419 -5.05076,-5.68211 0.25253,-4.67195 1.89403,-7.95495 5.42957,-10.10152 z"
           id="path3246"
           inkscape:connector-curvature="0"
           sodipodi:nodetypes="ccccccscccccccccc" />
        <path
           style="fill:#4f64cb;fill-opacity:1;stroke:#000000;stroke-width:1px;stroke-linecap:butt;stroke-linejoin:miter;stroke-opacity:1"
           d="m 266.80654,450.81634 c -1.6415,-2.52538 -0.88389,-7.95495 0.63134,-9.97525 1.51523,-2.02031 4.04061,-4.54569 9.72272,-1.26269 3.66181,2.39911 7.70242,10.35406 12.24811,10.85914 2.90419,0 4.16687,-3.15673 3.91433,-5.55584 -0.12626,-3.53554 -4.92449,-7.95495 -10.10152,-10.6066 -3.78807,-1.76777 -9.09138,-3.78808 -10.85914,-9.21765 -1.6415,-6.31345 0.88389,-11.74302 4.41942,-15.02601 3.66181,-4.41942 10.9854,-7.44989 18.56154,-7.82869 9.84899,0.50507 11.82668,7.49847 12.37438,12.2481 0,3.53553 -3.66181,5.55584 -5.05077,5.55584 -2.52538,0.12627 -7.3236,-4.41942 -9.72271,-3.91435 -1.61019,0.26837 -4.03297,2.24184 -4.89446,4.80915 -0.75987,2.26451 -0.10882,5.10315 0.60131,6.04999 1.51523,2.02031 10.85914,8.20751 13.38452,9.72273 3.78807,2.27283 11.61676,10.9854 6.566,17.55139 -3.40927,4.16688 -8.08361,5.67407 -10.2278,6.31346 -2.14925,0.6409 -9.18856,2.03423 -17.67768,-0.12627 -6.3076,-1.60529 -12.12183,-6.18719 -13.88959,-9.59645 z"
           id="path3250"
           inkscape:connector-curvature="0"
           sodipodi:nodetypes="csccccccccccssscssc" />
        <path
           style="fill:#4f64cb;fill-opacity:1;stroke:#000000;stroke-width:1px;stroke-linecap:butt;stroke-linejoin:miter;stroke-opacity:1"
           d="m 326.65807,426.44641 c 0,-8.20749 2.41183,-7.04701 1.30784,-13.62242 -0.74857,-4.4585 -3.29822,-8.73803 -6.3586,-11.00005 -3.6618,-2.27284 -7.63707,-5.03252 -8.58629,-9.09137 -0.62152,-2.65764 0.64079,-5.74119 2.39911,-7.82868 5.40842,-6.42091 18.85957,-10.98887 22.4759,-11.36422 6.04631,-0.62758 8.46616,-1.51523 14.2684,1.6415 5.36952,2.92883 3.17979,12.9497 1.89404,17.04632 -3.76071,11.98224 -7.44988,25.63262 -7.19734,32.32488 0.12627,4.92449 2.27284,39.90103 4.79822,41.28999 5.17703,-5.55584 28.55175,-19.96653 35.60789,-20.07678 8.08121,-0.12627 16.87022,3.34564 19.1929,9.59645 2.65165,9.47018 0.3788,44.57298 5.42956,57.07362 2.65179,8.09803 10.38796,20.77669 13.63706,28.28427 2.52538,5.93465 0.88388,10.22779 -1.51523,15.02601 -3.15673,3.66181 -12.50064,8.33376 -16.54125,7.95496 -6.9448,-1.13643 -10.10152,-9.72272 -10.9854,-17.93021 -0.75762,-6.18718 5.05076,-32.70369 3.28299,-43.56283 -0.88388,-5.42957 -5.17703,-31.31473 -13.00572,-34.09265 -7.82868,-2.39911 -18.68782,7.07108 -25.12754,16.16245 -5.68211,8.20749 -11.49049,23.2335 -11.8693,28.5368 -0.63134,5.68211 5.23927,20.72406 4.5457,31.31474 -0.19838,3.02917 -9.40986,14.7937 -13.76333,19.06662 -9.981,9.79633 -18.14898,8.67827 -20.32932,6.56599 -4.04504,-3.91877 6.56599,-18.94035 6.56599,-29.54696 0,-5.00109 -1.92693,-60.93596 -2.25307,-78.7922 -0.14407,-7.88828 2.7177,-24.38523 2.12679,-34.97623 z"
           id="path3252"
           inkscape:connector-curvature="0"
           sodipodi:nodetypes="cscaascsccsccccccccccsssssc" />
        <path
           style="fill:#4f64cb;fill-opacity:1;stroke:#000000;stroke-width:1px;stroke-linecap:butt;stroke-linejoin:miter;stroke-opacity:1"
           d="m 426.78945,525.06255 c -7.48784,-8.68271 -9.62873,-22.139 -5.17703,-34.09265 2.36902,-6.36125 9.3412,-14.40021 15.78363,-17.5514 5.17432,-2.53092 13.37717,-2.99104 18.94036,0.25255 6.60376,3.85029 12.37437,19.31916 12.37437,24.36992 0,5.05077 -0.11415,12.8993 -5.17703,21.46575 -3.27611,5.54318 -11.17323,10.51919 -16.79379,12.6269 -6.50584,2.43969 -15.51278,-1.92519 -19.95051,-7.07107 z"
           id="path3266"
           inkscape:connector-curvature="0"
           sodipodi:nodetypes="ssssssss" />
        <path
           style="fill:#4f64cb;fill-opacity:1;stroke:#000000;stroke-width:1px;stroke-linecap:butt;stroke-linejoin:miter;stroke-opacity:1"
           d="m 482.97919,523.79987 c -5.52881,-6.49716 -5.22846,-12.04482 -5.80838,-22.4759 -0.28176,-5.06813 1.26269,-8.33376 -0.12627,-14.01587 -2.77792,-4.41942 -8.46002,-3.15673 -10.85914,-8.71257 -1.76776,-5.17703 4.07248,-8.37005 8.46003,-9.97525 5.96811,-2.18345 9.21169,-1.8625 15.15228,-0.75761 4.77842,0.88874 7.45624,6.7572 6.31346,11.86929 -0.80916,3.61962 -5.80837,16.79378 -3.6618,23.61231 3.15673,6.06092 8.28745,4.42479 10.10152,3.53554 6.43973,-3.15673 10.67433,-17.16695 7.32361,-22.85471 -5.64411,-9.58075 -6.56599,-14.2684 0.12627,-21.46573 4.92449,-4.04061 9.09137,-2.02031 12.6269,3.40926 2.77792,4.54569 -0.50507,18.56156 1e-5,23.35978 0.63134,9.59645 11.49048,23.73858 11.74302,28.78935 0.25254,4.16687 -4.41942,8.08121 -8.9651,9.09137 -6.69226,0.63134 -6.566,-4.9245 -13.13199,-4.9245 -2.90419,-0.12626 -11.36422,5.68211 -16.28871,5.55584 -7.32361,0 -11.7333,-2.54533 -13.00571,-4.0406 z"
           id="path3270"
           inkscape:connector-curvature="0"
           sodipodi:nodetypes="ssccssscsscccccccs" />
        <path
           style="fill:#4f64cb;fill-opacity:1;stroke:#000000;stroke-width:1px;stroke-linecap:butt;stroke-linejoin:miter;stroke-opacity:1"
           d="m 549.39672,525.31509 c -3.53739,-0.87644 -9.95185,-6.56801 -10.60661,-14.01586 -0.3554,-4.04274 1.1208,-10.41418 8.08122,-11.23795 8.12125,-0.96115 6.50212,4.65611 12.87945,9.72271 3.38905,2.6925 5.8198,0.8186 7.44987,-0.88388 2.6805,-2.79957 2.15861,-8.80118 -0.50507,-11.61675 -5.70082,-6.0259 -14.32025,-4.82394 -21.46574,-8.46003 -8.10058,-4.12209 -5.92974,-11.74068 -3.53554,-16.16244 1.79429,-3.31379 8.72956,-10.81467 15.40483,-14.2684 6.67527,-3.45373 15.06456,-7.73374 21.59201,-3.53554 4.77678,3.07223 6.85082,11.29637 4.67196,16.54125 -1.30783,3.14816 -6.94333,4.44855 -10.2278,3.53553 -6.09262,-1.69363 -3.1165,-6.62431 -6.566,-6.43972 -2.30138,0.12315 -5.98843,4.01441 -5.80837,7.70241 0.41139,8.42593 11.05333,10.5585 16.28871,15.27856 5.98046,5.3918 8.9818,10.8612 8.33377,18.18275 -0.33923,3.83272 -4.34692,8.85515 -7.82869,11.23795 -6.37124,4.36023 -17.66367,7.01953 -28.158,4.41941 z"
           id="path3272"
           inkscape:connector-curvature="0"
           sodipodi:nodetypes="ssssssssssssssssss" />
        <path
           style="fill:#4f64cb;fill-opacity:1;stroke:#000000;stroke-width:1px;stroke-linecap:butt;stroke-linejoin:miter;stroke-opacity:1"
           d="m 600.50505,504.04062 c -8.85712,-8.84586 -10.43096,-17.87805 -10.8285,-23.04597 -0.36041,-4.68534 1.45122,-13.40565 6.13488,-18.411 3.58385,-3.83 9.28784,-6.70159 14.57325,-7.85296 5.64709,-1.23017 23.7352,-4.14621 33.25844,2.3584 5.67962,3.87933 8.58353,10.89449 8.20113,17.49647 -0.39543,6.82712 -6.07902,9.42417 -9.68572,10.69326 -13.52767,4.75999 -31.75328,2.07633 -33.98542,4.30847 -1.33929,1.42857 4.25368,9.90717 12.5455,10.19082 13.56437,0.46401 15.98244,-9.32302 25.27394,-8.8848 3.23485,0.15257 7.57123,2.44841 8.05059,5.88497 0.7299,5.23278 -1.50345,10.26312 -5.52521,13.19063 -7.48429,5.44795 -14.07985,5.67472 -22.0601,5.3033 -10.18808,-0.47416 -18.73722,-4.0252 -25.95278,-11.23159 z"
           id="path3274"
           inkscape:connector-curvature="0"
           sodipodi:nodetypes="ssssssscssssss" />
        <path
           style="fill:#4f64cb;fill-opacity:1;stroke:#000000;stroke-width:0.5;stroke-linecap:butt;stroke-linejoin:miter;stroke-miterlimit:4;stroke-opacity:1;stroke-dasharray:none"
           d="m 563.7264,555.26996 c -0.86711,7.14382 4.25166,3.02265 3.53027,-0.80094 -0.72313,-3.83285 -0.0207,-5.53015 0.9235,-12.11132 0.37069,-2.58369 -3.61133,-2.9414 -3.44099,0.15056 0.41811,7.58961 -0.42407,7.91147 -1.01278,12.7617 z"
           id="path3280"
           inkscape:connector-curvature="0"
           sodipodi:nodetypes="sssss" />
        <path
           style="fill:#4f64cb;fill-opacity:1;stroke:#000000;stroke-width:0.5;stroke-linecap:butt;stroke-linejoin:miter;stroke-miterlimit:4;stroke-opacity:1;stroke-dasharray:none"
           d="m 568.53468,534.63099 c -1.41267,2.65071 -3.37198,2.46822 -4.719,0.94888 -1.39945,-1.57849 0.30112,-5.25724 2.40546,-5.10941 2.05788,0.14457 3.21636,2.46651 2.31354,4.16053 z"
           id="path3282"
           inkscape:connector-curvature="0"
           sodipodi:nodetypes="ssss" />
        <path
           style="fill:#4f64cb;fill-opacity:1;stroke:#000000;stroke-width:0.5;stroke-linecap:butt;stroke-linejoin:miter;stroke-miterlimit:4;stroke-opacity:1;stroke-dasharray:none"
           d="m 576.55989,557.72214 c -1.52914,-1.11296 0.71529,-6.45456 -1.18873,-11.13181 -0.98468,-2.41886 1.55426,-2.73749 3.0941,-2.73119 0.46841,-1.42228 2.34989,-5.50045 6.16053,-4.65445 2.15237,0.47785 4.61056,1.55593 5.38646,5.37212 0.38175,1.87759 1.07875,3.73219 2.18968,6.30777 0.6601,1.53038 -1.63294,3.51767 -3.283,3.28299 -3.80457,-0.54111 -2.48148,-8.40384 -5.55583,-8.90197 -1.06415,-0.17242 -2.03015,0.56546 -2.39912,1.57837 -0.52442,1.43965 -1.25335,2.435 0.40884,6.08214 1.041,2.28411 -1.65614,2.66418 -2.33428,2.9659 -1.02021,0.45391 -1.42468,2.59725 -2.47865,1.83013 z"
           id="path3284"
           inkscape:connector-curvature="0"
           sodipodi:nodetypes="sscsssssssss" />
        <path
           style="fill:#4f64cb;fill-opacity:1;stroke:#000000;stroke-width:0.5;stroke-linecap:butt;stroke-linejoin:miter;stroke-miterlimit:4;stroke-opacity:1;stroke-dasharray:none"
           d="m 613.66767,546.90711 c 0.8581,1.79552 -2.99167,3.86723 -4.64987,4.70645 -1.7309,0.87601 -3.55955,2.97891 -6.38823,3.09849 -3.3009,0.13953 -5.05295,-1.6507 -6.32389,-3.57493 -1.92659,-2.91691 -1.70652,-6.64186 -0.31567,-9.84899 1.41881,-3.27161 4.61602,-5.7309 7.89181,-5.87151 1.87881,-0.0806 4.61838,0.71659 4.79823,2.58851 0.14459,1.50493 -2.89386,1.574 -4.59417,2.30686 -2.06825,0.89144 -2.88329,2.81076 -2.79257,4.89048 0.0771,1.76819 -0.18274,4.60499 2.03272,4.52785 3.46815,-0.12077 8.28335,-7.13008 10.34164,-2.82321 z"
           id="path3286"
           inkscape:connector-curvature="0"
           sodipodi:nodetypes="sssssssssss" />
      </g>
    </g>
    <g
       id="g4102"
       style="fill:#ffffff;fill-opacity:1;stroke:#000000;stroke-opacity:1">
      <path
         sodipodi:nodetypes="ccccsc"
         inkscape:connector-curvature="0"
         id="path3268"
         d="m 437.26978,512.30937 c -5.05076,-1.51522 -3.6618,-7.3236 -2.65164,-10.48032 1.01015,-2.90419 5.93464,-9.72273 12.24809,-8.71257 5.42957,0.88388 3.91435,7.95496 3.66181,9.72272 -0.25254,2.65165 -2.15243,9.03592 -7.19734,9.59645 -3.40927,0.3788 -6.06092,-0.12628 -6.06092,-0.12628 z"
         style="fill:#ffffff;stroke:#000000;stroke-width:1px;stroke-linecap:butt;stroke-linejoin:miter;stroke-opacity:1;fill-opacity:1" />
      <g
         style="fill:#ffffff;fill-opacity:1;stroke:#000000;stroke-opacity:1"
         id="g4098">
        <path
           style="fill:#ffffff;stroke:#000000;stroke-width:1px;stroke-linecap:butt;stroke-linejoin:miter;stroke-opacity:1;fill-opacity:1"
           d="m 229.30462,441.34616 c -0.63134,-2.77792 3.78808,-6.43973 6.566,-6.18719 2.77792,0.25254 5.05076,3.15673 5.42956,5.17704 0,3.40926 -3.28299,1.6415 -5.42956,1.89403 -1.6415,0.12627 -5.55584,3.283 -6.566,-0.88388 z"
           id="path3248"
           inkscape:connector-curvature="0"
           sodipodi:nodetypes="ccccc" />
        <path
           style="fill:#ffffff;stroke:#000000;stroke-width:1px;stroke-linecap:butt;stroke-linejoin:miter;stroke-opacity:1;fill-opacity:1"
           d="m 610.63721,475.56508 c 2.67857,0.625 18.38407,-0.29324 19.09836,-3.86467 0.0971,-2.84143 -5.83857,-5.344 -11.73143,-4.98686 -6.16071,0.71429 -11.56336,7.60153 -7.36693,8.85153 z"
           id="path3278"
           inkscape:connector-curvature="0"
           sodipodi:nodetypes="cccc" />
      </g>
    </g>
  </g>
</svg>
